<svg width="486" height="785" viewBox="0 0 486 785" fill="none" xmlns="http://www.w3.org/2000/svg">
<path fill-rule="evenodd" clip-rule="evenodd" d="M33.5402 146.576V116.318L34.635 115.299H37.5399V147.595H34.5952L33.5402 146.576ZM451.66 195.817H454.399L457.138 197.218V293.343L454.399 294.68H451.66V195.817ZM33.1445 176.452V236.585L35.8837 237.923H37.2214V175.05H35.82L33.1445 176.452ZM33.1445 314.428V254.294L35.82 252.893H37.2214V315.766H35.8837L33.1445 314.428Z" fill="#C0C0C0"/>
<mask id="mask0_38_2909" style="mask-type:luminance" maskUnits="userSpaceOnUse" x="33" y="115" width="425" height="201">
<path fill-rule="evenodd" clip-rule="evenodd" d="M33.5402 146.576V116.318L34.635 115.299H37.5399V147.595H34.5952L33.5402 146.576ZM451.66 195.817H454.399L457.138 197.218V293.343L454.399 294.68H451.66V195.817ZM33.1445 176.452V236.585L35.8837 237.923H37.2214V175.05H35.82L33.1445 176.452ZM33.1445 314.428V254.294L35.82 252.893H37.2214V315.766H35.8837L33.1445 314.428Z" fill="white"/>
</mask>
<g mask="url(#mask0_38_2909)">
<g opacity="0.3" filter="url(#filter0_f_38_2909)">
<path fill-rule="evenodd" clip-rule="evenodd" d="M31.4238 179.191L37.2206 175.815V168.68L31.4238 172.056V179.191ZM31.4238 240.981L37.2206 244.357V237.222L31.4238 233.846V240.981ZM31.4238 256.97L37.2206 253.593V246.459L31.4238 249.835V256.97ZM31.4238 318.823L37.2206 322.199V315.065L31.4238 311.689V318.823ZM452.678 188.873V196.008L458.475 199.384V192.249L452.678 188.873ZM452.678 301.305L458.475 297.929V290.795L452.678 294.171V301.305ZM32.4431 117.019H38.2399V109.884H32.4431V117.019ZM32.4431 153.328H38.2399V146.194H32.4431V153.328Z" fill="black"/>
</g>
<path opacity="0.9" fill-rule="evenodd" clip-rule="evenodd" d="M35.5017 119.52V143.01C35.5017 148.687 33.4521 148.359 33.0762 148.299C33.0383 148.293 33.0174 148.29 33.0174 148.296V113.961C33.0174 113.961 35.5017 114.106 35.5017 119.52ZM30.4693 171.865H31.8071C34.0366 171.865 35.8839 176.451 35.8839 178.681V234.674C35.8839 236.903 34.0366 241.49 31.8071 241.49H30.4693V171.865ZM31.8069 249.453H30.3418V318.887H31.8069C34.0365 318.887 35.8838 314.3 35.8838 312.071V256.205C35.8838 253.975 34.0365 249.453 31.8069 249.453ZM454.399 199.192C454.399 196.963 456.246 192.376 458.476 192.376H460.196V298.502H458.476C456.246 298.502 454.399 293.916 454.399 291.686V199.192Z" fill="#EFEFEF"/>
<mask id="mask1_38_2909" style="mask-type:luminance" maskUnits="userSpaceOnUse" x="30" y="113" width="431" height="206">
<path fill-rule="evenodd" clip-rule="evenodd" d="M35.5017 119.52V143.01C35.5017 148.687 33.4521 148.359 33.0762 148.299C33.0383 148.293 33.0174 148.29 33.0174 148.296V113.961C33.0174 113.961 35.5017 114.106 35.5017 119.52ZM30.4693 171.865H31.8071C34.0366 171.865 35.8839 176.451 35.8839 178.681V234.674C35.8839 236.903 34.0366 241.49 31.8071 241.49H30.4693V171.865ZM31.8069 249.453H30.3418V318.887H31.8069C34.0365 318.887 35.8838 314.3 35.8838 312.071V256.205C35.8838 253.975 34.0365 249.453 31.8069 249.453ZM454.399 199.192C454.399 196.963 456.246 192.376 458.476 192.376H460.196V298.502H458.476C456.246 298.502 454.399 293.916 454.399 291.686V199.192Z" fill="white"/>
</mask>
<g mask="url(#mask1_38_2909)">
<g opacity="0.7" filter="url(#filter1_f_38_2909)">
<path fill-rule="evenodd" clip-rule="evenodd" d="M31.4259 116.509L37.2226 113.578V107.145L31.4259 110.075V116.509ZM31.4258 152.5L37.2226 155.43V148.996L31.4258 146.066V152.5ZM31.4258 177.152L37.2226 173.776V166.641L31.4258 170.017V177.152ZM31.4258 242.7L35.7574 245.248L31.4258 247.796V254.931L37.2226 251.555V239.005L31.4258 235.629V242.7ZM31.4258 320.479L37.2226 323.855V316.721L31.4258 313.344V320.479ZM452.362 188.873V196.007L458.159 199.384V192.249L452.362 188.873ZM452.362 301.623L458.159 298.247V291.113L452.362 294.489V301.623Z" fill="black"/>
</g>
<g opacity="0.2" filter="url(#filter2_f_38_2909)">
<path fill-rule="evenodd" clip-rule="evenodd" d="M31.4258 179.19L37.2226 175.814V168.68L31.4258 172.056V179.19ZM31.4258 240.98L37.2226 244.356V237.222L31.4258 233.846V240.98ZM31.4258 256.969L37.2226 253.593V246.459L31.4258 249.835V256.969ZM31.4258 318.823L37.2226 322.199V315.064L31.4258 311.688V318.823ZM452.68 188.873V196.008L458.477 199.384V192.249L452.68 188.873ZM452.68 301.305L458.477 297.929V290.795L452.68 294.171V301.305ZM31.4259 117.783L37.2226 114.406V107.272L31.4259 110.648V117.783ZM31.4258 152.117L37.2226 156.067V148.932L31.4258 144.983V152.117Z" fill="black"/>
</g>
<g filter="url(#filter3_f_38_2909)">
<path fill-rule="evenodd" clip-rule="evenodd" d="M31.4258 178.809L37.2226 175.433V168.298L31.4258 171.674V178.809ZM31.4258 241.49L37.2226 244.866V237.732L31.4258 234.356V241.49ZM31.4258 256.46L37.2226 253.084V245.949L31.4258 249.325V256.46ZM31.4258 319.333L37.2226 322.709V315.574L31.4258 312.198V319.333ZM452.68 189.192V195.88L458.477 199.256V192.568L452.68 189.192ZM452.68 301.305L458.477 297.929V290.795L452.68 294.171V301.305ZM31.4258 151.991L37.2226 155.749V148.614L31.4258 144.856V151.991ZM31.4259 117.656L37.2226 114.916V107.782L31.4259 110.521V117.656Z" fill="white"/>
</g>
</g>
<path fill-rule="evenodd" clip-rule="evenodd" d="M34.0992 118.385V143.886C34.0992 146.673 33.2567 146.826 33.3204 146.762L31.5512 146.512V116.254L33.1711 115.837C33.1711 115.837 34.0992 116.594 34.0992 118.385ZM28.6212 173.075L30.2948 173.307C33.2808 174.323 34.1766 179.15 34.1766 182.046V230.987C34.1766 233.067 33.9875 237.835 30.882 238.481L28.6212 240.343V173.075ZM29.8606 250.967H28.1406V317.849H29.8606C32.0901 317.849 33.9374 313.39 33.9374 311.16V257.592C33.9374 255.426 32.1538 250.967 29.8606 250.967ZM456.041 203.058C456.041 200.659 456.14 196.021 459.729 193.46H461.872V296.782L459.032 294.917C456.558 294.807 456.041 291.533 456.041 288.502V203.058Z" fill="#D0D0D0"/>
<mask id="mask2_38_2909" style="mask-type:luminance" maskUnits="userSpaceOnUse" x="28" y="115" width="434" height="203">
<path fill-rule="evenodd" clip-rule="evenodd" d="M34.0992 118.385V143.886C34.0992 146.673 33.2567 146.826 33.3204 146.762L31.5512 146.512V116.254L33.1711 115.837C33.1711 115.837 34.0992 116.594 34.0992 118.385ZM28.6212 173.075L30.2948 173.307C33.2808 174.323 34.1766 179.15 34.1766 182.046V230.987C34.1766 233.067 33.9875 237.835 30.882 238.481L28.6212 240.343V173.075ZM29.8606 250.967H28.1406V317.849H29.8606C32.0901 317.849 33.9374 313.39 33.9374 311.16V257.592C33.9374 255.426 32.1538 250.967 29.8606 250.967ZM456.041 203.058C456.041 200.659 456.14 196.021 459.729 193.46H461.872V296.782L459.032 294.917C456.558 294.807 456.041 291.533 456.041 288.502V203.058Z" fill="white"/>
</mask>
<g mask="url(#mask2_38_2909)">
<g opacity="0.4" filter="url(#filter4_f_38_2909)">
<rect x="27.7285" y="115.044" width="4.66762" height="34.3985" fill="black"/>
</g>
<g opacity="0.4" filter="url(#filter5_f_38_2909)">
<rect x="25.8184" y="171.026" width="6.57865" height="150.327" fill="black"/>
</g>
<g opacity="0.4" filter="url(#filter6_f_38_2909)">
<rect x="458.943" y="171.026" width="6.57865" height="150.327" fill="black"/>
</g>
</g>
<path opacity="0.5" fill-rule="evenodd" clip-rule="evenodd" d="M32.724 253.412C32.724 253.412 33.9334 255.612 33.9334 258.08L33.998 308.95C33.998 311.179 33.7432 315.766 31.5137 315.766H31.6411C34.2528 315.702 34.3802 311.179 34.3802 308.95L34.3156 258.13C34.2453 255.88 33.8388 254.945 33.1127 253.462C33.0015 253.234 32.724 253.412 32.724 253.412ZM32.4438 175.414C33.7944 176.698 34.1638 180.446 34.1638 182.421V230.789C34.1638 233.018 33.909 237.605 31.6794 237.605H31.8068C34.4186 237.541 34.546 233.018 34.546 230.789V182.421C34.4865 180.518 34.0674 176.666 32.7824 175.414C32.6836 175.318 32.4897 175.244 32.4438 175.414ZM456.355 287.865V202.76C456.355 200.786 456.737 196.9 457.948 195.817C456.355 196.709 456.037 200.786 456.037 202.76V287.865C456.037 290.094 456.1 294.617 458.648 294.681H458.776C456.61 294.681 456.355 290.158 456.355 287.865ZM458.649 195.498C458.394 195.498 458.203 195.626 458.012 195.817C458.203 195.689 458.394 195.626 458.649 195.626V195.498ZM33.4629 146.743C33.5519 146.732 33.5023 147.133 33.5799 147.071C34.4558 146.374 34.4956 144.095 34.4956 144.095V118.625C34.4956 118.625 34.4558 116.863 33.7092 115.848C33.5596 115.644 33.4734 116.119 33.3111 115.907C34.0576 116.903 34.1134 118.625 34.1134 118.625V144.095C34.1134 144.095 34.0874 145.936 33.4629 146.743Z" fill="white"/>
<g style="mix-blend-mode:soft-light" opacity="0.6">
<rect x="-264.658" y="-84.9771" width="1019.22" height="1019.22" fill="#E4E4E4"/>
</g>
</g>
<path fill-rule="evenodd" clip-rule="evenodd" d="M388.85 849.452H268.455C267.054 848.56 260.811 848.433 259.537 848.433H230.808C229.47 848.433 223.228 848.56 221.89 849.452H101.495C61.045 849.452 35.2461 824.29 35.2461 779.445V317.422C36.0742 315.065 36.5838 313.154 36.5838 311.944V256.269C36.5838 255.059 36.0742 253.211 35.2461 251.682V239.898C36.0742 237.541 36.5838 235.63 36.5838 234.419V178.745C36.5838 177.535 36.0742 175.687 35.2461 174.158V148.614C36.0742 146.512 36.2653 144.792 36.2653 143.646V118.93C36.2653 117.783 36.0742 116.063 35.2461 114.725V72.3643C35.2461 26.4996 59.7073 0 107.929 0H382.416C430.638 0 455.099 26.4996 455.099 72.3643V193.332C454.271 196.39 453.761 198.301 453.761 199.511V291.177C453.761 292.387 454.271 294.235 455.099 295.763V779.445C455.099 824.354 429.236 849.452 388.85 849.452Z" fill="#D0D0D0"/>
<mask id="mask3_38_2909" style="mask-type:luminance" maskUnits="userSpaceOnUse" x="35" y="0" width="421" height="850">
<path fill-rule="evenodd" clip-rule="evenodd" d="M388.85 849.452H268.455C267.054 848.56 260.811 848.433 259.537 848.433H230.808C229.47 848.433 223.228 848.56 221.89 849.452H101.495C61.045 849.452 35.2461 824.29 35.2461 779.445V317.422C36.0742 315.065 36.5838 313.154 36.5838 311.944V256.269C36.5838 255.059 36.0742 253.211 35.2461 251.682V239.898C36.0742 237.541 36.5838 235.63 36.5838 234.419V178.745C36.5838 177.535 36.0742 175.687 35.2461 174.158V148.614C36.0742 146.512 36.2653 144.792 36.2653 143.646V118.93C36.2653 117.783 36.0742 116.063 35.2461 114.725V72.3643C35.2461 26.4996 59.7073 0 107.929 0H382.416C430.638 0 455.099 26.4996 455.099 72.3643V193.332C454.271 196.39 453.761 198.301 453.761 199.511V291.177C453.761 292.387 454.271 294.235 455.099 295.763V779.445C455.099 824.354 429.236 849.452 388.85 849.452Z" fill="white"/>
</mask>
<g mask="url(#mask3_38_2909)">
<g style="mix-blend-mode:hard-light" opacity="0.4">
<rect x="-264.658" y="-84.9771" width="1019.22" height="1019.22" fill="#E4E4E4"/>
</g>
<g opacity="0.49983" filter="url(#filter7_f_38_2909)">
<path d="M398.978 -3.43994H92.5761C58.6235 -3.43994 31.041 24.0789 31.041 58.0952V784.413C31.041 813.843 51.7438 840.152 79.39 846.585C54.0371 839.515 35.5638 817.283 35.5638 786.961V69.6887C35.5638 24.2063 63.1463 -2.54813 97.1626 -2.54813H392.926C426.942 -2.54813 454.525 23.5693 454.525 67.3318V787.025C454.525 819.958 434.586 841.68 407.768 847.477C437.58 842.891 460.449 815.436 460.449 784.413V58.0952C460.513 24.0789 432.994 -3.43994 398.978 -3.43994Z" fill="black"/>
</g>
<g filter="url(#filter8_f_38_2909)">
<path fill-rule="evenodd" clip-rule="evenodd" d="M444.907 69.1158C444.907 33.1248 424.523 10.3198 384.455 10.3198H105.827C65.7593 10.3198 45.375 33.0611 45.375 69.1158L45.375 784.541C45.375 829.386 73.5945 844.993 105.19 844.993H385.092C416.688 844.993 444.907 829.386 444.907 784.541V69.1158Z" fill="#EDEDED"/>
</g>
<g opacity="0.7" filter="url(#filter9_f_38_2909)">
<path fill-rule="evenodd" clip-rule="evenodd" d="M444.907 69.1158C444.907 33.1248 424.523 10.3198 384.455 10.3198H105.827C65.7593 10.3198 45.375 33.0611 45.375 69.1158V778.808C45.375 823.653 73.5945 839.26 105.19 839.26H385.092C416.688 839.26 444.907 823.653 444.907 778.808V69.1158Z" fill="white"/>
</g>
<g filter="url(#filter10_f_38_2909)">
<path fill-rule="evenodd" clip-rule="evenodd" d="M417.005 835.629C430.892 826.01 439.81 810.403 439.81 790.656V66.7587C439.81 36.8192 427.516 18.9193 409.298 10.5107C432.676 19.1741 449.302 41.7242 449.302 68.2875V779.636C449.302 803.142 436.243 824.609 417.005 835.629ZM49.4507 69.243V790.656C49.4507 806.199 54.929 819.067 63.9746 828.558C50.2789 816.646 40.9785 798.81 40.9785 779.636V68.2875C40.9785 44.1448 55.4386 23.2509 75.5044 13.1861C59.7703 22.7413 49.4507 40.705 49.4507 69.243Z" fill="white"/>
</g>
<g filter="url(#filter11_f_38_2909)">
<path fill-rule="evenodd" clip-rule="evenodd" d="M417.005 835.629C430.892 826.01 439.81 810.403 439.81 790.656V66.7587C439.81 36.8192 427.516 18.9193 409.298 10.5107C432.676 19.1741 449.302 41.7242 449.302 68.2875V779.636C449.302 803.142 436.243 824.609 417.005 835.629ZM49.4507 69.243V790.656C49.4507 806.199 54.929 819.067 63.9746 828.558C50.2789 816.646 40.9785 798.81 40.9785 779.636V68.2875C40.9785 44.1448 55.4386 23.2509 75.5044 13.1861C59.7703 22.7413 49.4507 40.705 49.4507 69.243Z" fill="white"/>
</g>
<g filter="url(#filter12_f_38_2909)">
<path fill-rule="evenodd" clip-rule="evenodd" d="M387.512 17.263H102.769C69.8355 17.263 49.8971 28.9203 43.3359 53.6362C46.2662 22.0406 66.7142 2.48438 104.17 2.48438H386.111C423.567 2.48438 444.015 22.0406 446.945 53.6362C440.384 28.984 420.446 17.263 387.512 17.263Z" fill="white"/>
</g>
<g opacity="0.9" filter="url(#filter13_f_38_2909)">
<path fill-rule="evenodd" clip-rule="evenodd" d="M406.56 848.242C434.896 842.028 454.081 819.255 454.081 779.044V71.5654C454.081 17.5789 417.697 0.573218 384.328 0.573218H105.085C68.8549 0.573218 35.9479 19.7285 35.9479 72.2821V776.177C35.9479 820.29 58.5831 842.825 81.94 847.668C28.9622 861.776 27.7305 814.671 27.7305 784.286V58.0952C27.7305 24.1426 58.6891 -3.43994 92.6417 -3.43994H399.043C432.996 -3.43994 463.955 24.0789 463.955 58.0952V784.413C463.891 815.818 450.822 854.928 406.56 848.242Z" fill="white"/>
</g>
</g>
<mask id="mask4_38_2909" style="mask-type:luminance" maskUnits="userSpaceOnUse" x="35" y="0" width="421" height="850">
<path fill-rule="evenodd" clip-rule="evenodd" d="M447.553 778.808C447.553 800.497 441.165 817.02 428.564 827.917C417.913 837.13 402.863 841.999 385.041 841.999H105.097C87.2756 841.999 72.2256 837.13 61.5736 827.917C48.9735 817.02 42.5849 800.497 42.5849 778.808V69.0946C42.5849 50.3322 48.1148 34.8382 58.5764 24.2887C69.5566 13.2162 85.4372 7.60156 105.776 7.60156H384.362C404.701 7.60156 420.581 13.2162 431.561 24.2887C442.023 34.8382 447.553 50.3322 447.553 69.0946V778.808ZM107.815 0.127441C59.572 0.127441 35.2012 26.627 35.2012 72.4917V779.487C35.2012 824.333 60.9308 849.474 101.36 849.474H388.779C429.207 849.474 455.027 824.333 455.027 779.487V72.4917C455.027 26.627 430.566 0.127441 382.324 0.127441H107.815Z" fill="white"/>
</mask>
<g mask="url(#mask4_38_2909)">
<path fill-rule="evenodd" clip-rule="evenodd" d="M34.4317 87.4613V81.6646H455.686V87.4613H34.4317ZM455.686 768.297H34.4316V762.5H455.686V768.297Z" fill="#989899" fill-opacity="0.6"/>
<mask id="mask5_38_2909" style="mask-type:luminance" maskUnits="userSpaceOnUse" x="34" y="81" width="422" height="688">
<path fill-rule="evenodd" clip-rule="evenodd" d="M34.4317 87.4613V81.6646H455.686V87.4613H34.4317ZM455.686 768.297H34.4316V762.5H455.686V768.297Z" fill="white"/>
</mask>
<g mask="url(#mask5_38_2909)">
<g opacity="0.8" filter="url(#filter14_f_38_2909)">
<path fill-rule="evenodd" clip-rule="evenodd" d="M440.781 93.131H449.826V75.8681H440.781V93.131ZM454.668 75.9316V93.1945H463.65V75.9316H454.668ZM440.781 773.967H449.826V756.704H440.781V773.967ZM454.668 773.967H463.65V756.704H454.668V773.967ZM26.9797 93.131H35.9615V75.868H26.916V93.131H26.9797ZM40.1658 93.131H49.2113V75.8681H40.1658V93.131ZM26.9798 773.967H35.9616V756.704H26.9161V773.967H26.9798ZM40.1658 773.967H49.2113V756.704H40.1658V773.967Z" fill="white"/>
</g>
<g style="mix-blend-mode:hard-light" opacity="0.15">
<rect x="-264.707" y="-84.9771" width="1019.22" height="1019.22" fill="#E4E4E4"/>
</g>
</g>
</g>
<defs>
<filter id="filter0_f_38_2909" x="21.0344" y="99.4946" width="447.83" height="233.094" filterUnits="userSpaceOnUse" color-interpolation-filters="sRGB">
<feFlood flood-opacity="0" result="BackgroundImageFix"/>
<feBlend mode="normal" in="SourceGraphic" in2="BackgroundImageFix" result="shape"/>
<feGaussianBlur stdDeviation="5.19471" result="effect1_foregroundBlur_38_2909"/>
</filter>
<filter id="filter1_f_38_2909" x="26.2311" y="101.95" width="437.122" height="227.1" filterUnits="userSpaceOnUse" color-interpolation-filters="sRGB">
<feFlood flood-opacity="0" result="BackgroundImageFix"/>
<feBlend mode="normal" in="SourceGraphic" in2="BackgroundImageFix" result="shape"/>
<feGaussianBlur stdDeviation="2.59736" result="effect1_foregroundBlur_38_2909"/>
</filter>
<filter id="filter2_f_38_2909" x="27.9626" y="103.809" width="433.977" height="221.853" filterUnits="userSpaceOnUse" color-interpolation-filters="sRGB">
<feFlood flood-opacity="0" result="BackgroundImageFix"/>
<feBlend mode="normal" in="SourceGraphic" in2="BackgroundImageFix" result="shape"/>
<feGaussianBlur stdDeviation="1.73157" result="effect1_foregroundBlur_38_2909"/>
</filter>
<filter id="filter3_f_38_2909" x="27.9626" y="104.319" width="433.977" height="221.853" filterUnits="userSpaceOnUse" color-interpolation-filters="sRGB">
<feFlood flood-opacity="0" result="BackgroundImageFix"/>
<feBlend mode="normal" in="SourceGraphic" in2="BackgroundImageFix" result="shape"/>
<feGaussianBlur stdDeviation="1.73157" result="effect1_foregroundBlur_38_2909"/>
</filter>
<filter id="filter4_f_38_2909" x="24.2654" y="111.58" width="11.5943" height="41.3248" filterUnits="userSpaceOnUse" color-interpolation-filters="sRGB">
<feFlood flood-opacity="0" result="BackgroundImageFix"/>
<feBlend mode="normal" in="SourceGraphic" in2="BackgroundImageFix" result="shape"/>
<feGaussianBlur stdDeviation="1.73157" result="effect1_foregroundBlur_38_2909"/>
</filter>
<filter id="filter5_f_38_2909" x="22.3552" y="167.563" width="13.5044" height="157.254" filterUnits="userSpaceOnUse" color-interpolation-filters="sRGB">
<feFlood flood-opacity="0" result="BackgroundImageFix"/>
<feBlend mode="normal" in="SourceGraphic" in2="BackgroundImageFix" result="shape"/>
<feGaussianBlur stdDeviation="1.73157" result="effect1_foregroundBlur_38_2909"/>
</filter>
<filter id="filter6_f_38_2909" x="455.48" y="167.563" width="13.5044" height="157.254" filterUnits="userSpaceOnUse" color-interpolation-filters="sRGB">
<feFlood flood-opacity="0" result="BackgroundImageFix"/>
<feBlend mode="normal" in="SourceGraphic" in2="BackgroundImageFix" result="shape"/>
<feGaussianBlur stdDeviation="1.73157" result="effect1_foregroundBlur_38_2909"/>
</filter>
<filter id="filter7_f_38_2909" x="20.6516" y="-13.8294" width="450.187" height="871.696" filterUnits="userSpaceOnUse" color-interpolation-filters="sRGB">
<feFlood flood-opacity="0" result="BackgroundImageFix"/>
<feBlend mode="normal" in="SourceGraphic" in2="BackgroundImageFix" result="shape"/>
<feGaussianBlur stdDeviation="5.19471" result="effect1_foregroundBlur_38_2909"/>
</filter>
<filter id="filter8_f_38_2909" x="17.6699" y="-17.3853" width="454.943" height="890.084" filterUnits="userSpaceOnUse" color-interpolation-filters="sRGB">
<feFlood flood-opacity="0" result="BackgroundImageFix"/>
<feBlend mode="normal" in="SourceGraphic" in2="BackgroundImageFix" result="shape"/>
<feGaussianBlur stdDeviation="13.8526" result="effect1_foregroundBlur_38_2909"/>
</filter>
<filter id="filter9_f_38_2909" x="17.6699" y="-17.3853" width="454.943" height="884.351" filterUnits="userSpaceOnUse" color-interpolation-filters="sRGB">
<feFlood flood-opacity="0" result="BackgroundImageFix"/>
<feBlend mode="normal" in="SourceGraphic" in2="BackgroundImageFix" result="shape"/>
<feGaussianBlur stdDeviation="13.8526" result="effect1_foregroundBlur_38_2909"/>
</filter>
<filter id="filter10_f_38_2909" x="27.1259" y="-3.34183" width="436.027" height="852.823" filterUnits="userSpaceOnUse" color-interpolation-filters="sRGB">
<feFlood flood-opacity="0" result="BackgroundImageFix"/>
<feBlend mode="normal" in="SourceGraphic" in2="BackgroundImageFix" result="shape"/>
<feGaussianBlur stdDeviation="6.92628" result="effect1_foregroundBlur_38_2909"/>
</filter>
<filter id="filter11_f_38_2909" x="27.1259" y="-3.34183" width="436.027" height="852.823" filterUnits="userSpaceOnUse" color-interpolation-filters="sRGB">
<feFlood flood-opacity="0" result="BackgroundImageFix"/>
<feBlend mode="normal" in="SourceGraphic" in2="BackgroundImageFix" result="shape"/>
<feGaussianBlur stdDeviation="6.92628" result="effect1_foregroundBlur_38_2909"/>
</filter>
<filter id="filter12_f_38_2909" x="22.5571" y="-18.2945" width="445.167" height="92.7096" filterUnits="userSpaceOnUse" color-interpolation-filters="sRGB">
<feFlood flood-opacity="0" result="BackgroundImageFix"/>
<feBlend mode="normal" in="SourceGraphic" in2="BackgroundImageFix" result="shape"/>
<feGaussianBlur stdDeviation="10.3894" result="effect1_foregroundBlur_38_2909"/>
</filter>
<filter id="filter13_f_38_2909" x="22.5358" y="-8.63465" width="446.614" height="864.071" filterUnits="userSpaceOnUse" color-interpolation-filters="sRGB">
<feFlood flood-opacity="0" result="BackgroundImageFix"/>
<feBlend mode="normal" in="SourceGraphic" in2="BackgroundImageFix" result="shape"/>
<feGaussianBlur stdDeviation="2.59736" result="effect1_foregroundBlur_38_2909"/>
</filter>
<filter id="filter14_f_38_2909" x="21.0845" y="70.0366" width="448.397" height="709.762" filterUnits="userSpaceOnUse" color-interpolation-filters="sRGB">
<feFlood flood-opacity="0" result="BackgroundImageFix"/>
<feBlend mode="normal" in="SourceGraphic" in2="BackgroundImageFix" result="shape"/>
<feGaussianBlur stdDeviation="2.91575" result="effect1_foregroundBlur_38_2909"/>
</filter>
</defs>
</svg>
