<svg width="52" height="52" viewBox="0 0 52 52" fill="none" xmlns="http://www.w3.org/2000/svg">
<circle cx="26" cy="26" r="26" fill="#1B2D40"/>
<path d="M41.8327 26.0001C41.8327 34.744 34.7433 41.8334 25.9993 41.8334C17.2554 41.8334 10.166 34.744 10.166 26.0001C10.166 17.2561 17.2554 10.1667 25.9993 10.1667C34.7433 10.1667 41.8327 17.2561 41.8327 26.0001Z" fill="url(#paint0_linear_38_8739)"/>
<path opacity="0.05" d="M15.0101 25.5772C21.4661 22.652 29.0487 19.4782 30.2164 19.0191C32.7909 18.0065 33.9135 19.0412 33.7377 20.6919C33.5216 22.7146 32.4972 28.6006 31.867 32.8178C31.4981 35.2854 30.1618 36.0415 28.6537 35.0844C27.5097 34.3584 23.5767 31.7831 22.542 30.9028C21.8366 30.3027 21.345 29.6298 21.8453 28.9442C21.9918 28.7439 22.3662 28.3401 22.5744 28.1391C23.6186 27.1273 23.4777 26.9096 22.215 27.8129C22.0646 27.9206 21.1922 28.5531 20.8336 28.7922C19.9548 29.378 19.1465 29.4097 17.7761 28.9442C16.6551 28.5634 15.5785 28.2697 14.8992 27.976C13.9611 27.5699 13.6017 26.2153 15.0101 25.5772Z" fill="black"/>
<path opacity="0.07" d="M15.5779 25.6762C21.5724 22.9964 28.9444 19.9255 30.0226 19.4909C32.6066 18.4475 33.5574 19.0665 33.2795 21.0829C33.0215 22.9497 32.1055 28.7257 31.4635 32.5977C31.085 34.8769 29.9799 35.3788 28.5406 34.4478C27.6389 33.8668 24.0099 31.4759 23.1296 30.78C22.4487 30.2425 21.7434 29.6218 22.5675 28.7233C22.843 28.4233 24.3646 26.9547 25.5022 25.8622C26.1617 25.2281 25.9265 24.9154 25.1309 25.46C23.6719 26.4599 21.285 28.0425 20.8591 28.3298C20.0476 28.8761 19.2852 29.0075 17.9584 28.5903C16.9126 28.261 15.9025 27.9419 15.376 27.7369C14.1996 27.2809 14.1837 26.2992 15.5779 25.6762Z" fill="black"/>
<path d="M16.1453 25.776C21.679 23.3416 28.8397 20.3737 29.8284 19.9628C32.4212 18.8877 33.2168 19.0935 32.8202 21.4749C32.5352 23.1865 31.7134 28.8524 31.0579 32.3793C30.6692 34.4709 29.7968 34.7187 28.4256 33.8138C27.7662 33.3784 24.4372 31.1767 23.7144 30.6598C23.0549 30.1887 22.1453 29.6219 23.2861 28.5057C23.6922 28.1082 26.353 25.567 28.4264 23.5894C28.6979 23.3297 28.3567 22.903 28.0432 23.1112C25.2487 24.9645 21.3742 27.5367 20.881 27.8715C20.1361 28.3774 19.4204 28.6094 18.1363 28.2405C17.1657 27.9618 16.2181 27.6293 15.8492 27.5026C14.4282 27.015 14.7654 26.3832 16.1453 25.776Z" fill="white"/>
<defs>
<linearGradient id="paint0_linear_38_8739" x1="14.8036" y1="14.8043" x2="37.1951" y2="37.1958" gradientUnits="userSpaceOnUse">
<stop stop-color="#33BEF0"/>
<stop offset="1" stop-color="#0A85D9"/>
</linearGradient>
</defs>
</svg>
