<svg width="52" height="52" viewBox="0 0 52 52" fill="none" xmlns="http://www.w3.org/2000/svg">
<circle cx="26" cy="26" r="26" fill="#1B2D40"/>
<path d="M26 11.75C24.0208 11.75 17.9975 11.75 14.6675 14.7905C12.6845 16.766 11.75 19.6205 11.75 23.75V26C11.75 30.1295 12.6845 32.984 14.6907 34.982C15.6897 35.8932 17.0517 36.6215 18.7167 37.1247L19.25 37.2852V41.2812C19.25 41.75 19.3858 41.75 19.4307 41.75C19.523 41.75 19.6708 41.7207 19.9513 41.4717C20.0188 41.405 20.5138 40.8695 22.9213 38.1725L23.1642 37.9002L23.528 37.9235C24.3343 37.9737 25.166 38 26 38C27.9792 38 34.0025 38 37.3325 34.9587C39.3148 32.9832 40.25 30.1287 40.25 26V23.75C40.25 19.6205 39.3155 16.766 37.3092 14.768C34.0025 11.75 27.9792 11.75 26 11.75Z" fill="#7360F2"/>
<path d="M33.088 29.6405C32.2548 28.9385 31.87 28.7263 30.7195 28.0355C30.2403 27.7483 29.5098 27.5 29.1265 27.5C28.8648 27.5 28.5513 27.7003 28.3593 27.8923C27.8673 28.3843 27.706 29 26.8435 29C25.9998 29 24.526 28.1412 23.4685 27.0312C22.3585 25.9738 21.4998 24.5 21.4998 23.6562C21.4998 22.7937 22.1043 22.6212 22.5963 22.1285C22.7883 21.9372 22.9998 21.6238 22.9998 21.362C22.9998 20.9788 22.7515 20.2595 22.4643 19.7802C21.7735 18.629 21.562 18.2442 20.8593 17.4117C20.6215 17.1297 20.3508 17.0008 20.0673 17C19.588 16.9992 18.9588 17.237 18.5328 17.5543C17.8923 18.032 17.2225 18.6823 17.0433 19.4922C17.0193 19.6025 17.005 19.7135 17.0005 19.8245C16.966 20.6683 17.2975 21.5247 17.6553 22.25C18.4975 23.9592 19.612 25.6137 20.8248 27.0912C21.2125 27.5638 21.6348 28.0033 22.072 28.4277C22.4965 28.8642 22.936 29.2865 23.4085 29.675C24.886 30.8877 26.5405 32.0022 28.2498 32.8445C28.9683 33.1985 29.8143 33.524 30.6498 33.5C30.769 33.4963 30.8883 33.4828 31.0075 33.4565C31.8175 33.278 32.4678 32.6075 32.9455 31.967C33.2628 31.541 33.5005 30.9125 33.4998 30.4325C33.499 30.149 33.37 29.8783 33.088 29.6405ZM33.4998 26C33.0858 26 32.7498 25.664 32.7498 25.25V24.5C32.7498 20.7785 29.7213 17.75 25.9998 17.75C25.5858 17.75 25.2498 17.414 25.2498 17C25.2498 16.586 25.5858 16.25 25.9998 16.25C30.5485 16.25 34.2498 19.9513 34.2498 24.5V25.25C34.2498 25.664 33.9138 26 33.4998 26ZM28.8933 24.5C28.5603 24.5 28.2558 24.2765 28.168 23.939C27.9625 23.1508 27.3475 22.535 26.5623 22.3325C26.161 22.2283 25.9203 21.8195 26.0238 21.4183C26.1273 21.0178 26.5353 20.777 26.938 20.8798C28.249 21.2195 29.2765 22.2462 29.6193 23.5602C29.7235 23.9615 29.4835 24.3702 29.083 24.4752C29.0193 24.4917 28.9555 24.5 28.8933 24.5Z" fill="white"/>
<path d="M31.2503 25.2501C30.8363 25.2501 30.5003 24.9141 30.5003 24.5001C30.5003 22.1091 28.6298 20.1366 26.2418 20.0106C25.8278 19.9888 25.5106 19.6356 25.5323 19.2223C25.5541 18.8083 25.9133 18.4903 26.3206 18.5128C29.5058 18.6808 32.0003 21.3111 32.0003 24.5001C32.0003 24.9141 31.6643 25.2501 31.2503 25.2501Z" fill="white"/>
<path d="M26.0004 11C22.6254 11 17.3664 11.3105 14.1624 14.237C11.8974 16.4922 11.0004 19.6558 11.0004 23.75C11.0004 24.089 10.9989 24.467 11.0019 24.875C10.9989 25.2823 11.0004 25.6603 11.0004 25.9993C11.0004 30.0935 11.8974 33.257 14.1624 35.5122C15.3819 36.626 16.9029 37.3588 18.5004 37.8418V41.2812C18.5004 42.4783 19.2871 42.5 19.4311 42.5H19.4379C19.8084 42.4985 20.1286 42.317 20.4496 42.032C20.5704 41.9247 21.9646 40.3708 23.4811 38.6712C24.3841 38.729 25.2421 38.75 25.9996 38.75C29.3746 38.75 34.6329 38.4387 37.8376 35.5122C40.1019 33.2577 40.9996 30.0935 40.9996 25.9993C40.9996 25.6603 41.0011 25.2823 40.9981 24.8743C41.0011 24.4663 40.9996 24.089 40.9996 23.7493C40.9996 19.655 40.1026 16.4915 37.8376 14.2362C34.6336 11.3105 29.3754 11 26.0004 11ZM38.7504 25.7382V25.9993C38.7504 29.6788 37.9666 32.186 36.2859 33.8833C33.3744 36.5 27.8281 36.5 25.9996 36.5C25.4431 36.5 24.5401 36.4993 23.4744 36.425C23.1781 36.758 20.0004 40.3123 20.0004 40.3123V35.915C18.4224 35.5363 16.8631 34.9153 15.7149 33.884C14.0341 32.186 13.2504 29.6788 13.2504 25.9993V25.7382C13.2504 25.475 13.2496 25.1908 13.2519 24.8585C13.2496 24.5585 13.2496 24.275 13.2504 24.011V23.75C13.2504 20.0705 14.0341 17.5633 15.7149 15.866C18.6256 13.2492 24.1726 13.2492 26.0004 13.2492C27.8281 13.2492 33.3744 13.2492 36.2851 15.866C37.9666 17.5633 38.7496 20.0705 38.7496 23.75V24.011C38.7496 24.2743 38.7504 24.5585 38.7481 24.8907C38.7504 25.1915 38.7504 25.475 38.7504 25.7382Z" fill="white"/>
</svg>
