<svg width="52" height="52" viewBox="0 0 52 52" fill="none" xmlns="http://www.w3.org/2000/svg">
<circle cx="26" cy="26" r="26" fill="#1B2D40"/>
<path d="M11.6504 40.4773L13.6709 33.101C12.4244 30.9425 11.7689 28.493 11.7696 25.9843C11.7734 18.1355 18.1604 11.75 26.0099 11.75C29.8191 11.7515 33.3936 13.2343 36.0824 15.9245C38.7704 18.6155 40.2509 22.1915 40.2494 25.9955C40.2464 33.8442 33.8579 40.2305 26.0099 40.2305C26.0091 40.2305 26.0099 40.2305 26.0099 40.2305H26.0039C23.6211 40.2297 21.2789 39.632 19.1991 38.4972L11.6504 40.4773Z" fill="white"/>
<path d="M11.6501 40.8523C11.5511 40.8523 11.4551 40.8133 11.3838 40.7413C11.2901 40.646 11.2533 40.5073 11.2886 40.379L13.2678 33.152C12.0408 30.9725 11.3936 28.4975 11.3951 25.985C11.3981 17.9285 17.9538 11.375 26.0096 11.375C29.9171 11.3765 33.5883 12.8983 36.3476 15.6598C39.1068 18.422 40.6256 22.0925 40.6241 25.9955C40.6211 34.0513 34.0646 40.6055 26.0096 40.6055C23.6178 40.6048 21.2516 40.0145 19.1516 38.8978L11.7453 40.8395C11.7138 40.8485 11.6823 40.8523 11.6501 40.8523Z" fill="white"/>
<path d="M26.0102 11.75C29.8194 11.7515 33.3939 13.2343 36.0827 15.9245C38.7707 18.6155 40.2512 22.1915 40.2497 25.9955C40.2467 33.8442 33.8582 40.2305 26.0102 40.2305H26.0042C23.6214 40.2297 21.2792 39.632 19.1994 38.4972L11.6507 40.4773L13.6712 33.101C12.4247 30.9425 11.7692 28.493 11.7699 25.9843C11.7737 18.1355 18.1607 11.75 26.0102 11.75ZM26.0102 11C17.7482 11 11.0237 17.7215 11.0199 25.9843C11.0192 28.5095 11.6567 30.998 12.8657 33.2008L10.9269 40.28C10.8564 40.5388 10.9284 40.8148 11.1174 41.0052C11.2599 41.1493 11.4527 41.228 11.6507 41.228C11.7144 41.228 11.7782 41.2197 11.8412 41.2033L19.1064 39.2982C21.2274 40.3993 23.6049 40.9805 26.0042 40.9812C34.2722 40.9812 40.9967 34.259 41.0004 25.9963C41.0019 21.992 39.4442 18.227 36.6144 15.395C33.7832 12.5622 30.0174 11.0015 26.0102 11Z" fill="#CFD8DC"/>
<path d="M34.3818 17.624C32.1468 15.3875 29.1761 14.1553 26.0141 14.1545C19.4861 14.1545 14.1768 19.4615 14.1738 25.985C14.1731 28.2208 14.7986 30.3973 15.9836 32.282L16.2656 32.7298L15.0693 37.0955L19.5491 35.921L19.9818 36.1775C21.7983 37.256 23.8818 37.826 26.0058 37.8268H26.0103C32.5338 37.8268 37.8431 32.519 37.8453 25.9948C37.8461 22.8335 36.6168 19.8605 34.3818 17.624Z" fill="#40C351"/>
<path fill-rule="evenodd" clip-rule="evenodd" d="M22.4507 20.0337C22.1844 19.4412 21.9039 19.4292 21.6497 19.4187C21.4419 19.4097 21.2049 19.4104 20.9679 19.4104C20.7309 19.4104 20.3454 19.4997 20.0192 19.8559C19.6929 20.2122 18.7734 21.0724 18.7734 22.8229C18.7734 24.5734 20.0484 26.2654 20.2262 26.5024C20.4039 26.7394 22.6877 30.4467 26.3042 31.8732C29.3094 33.0582 29.9214 32.8227 30.5739 32.7634C31.2264 32.7042 32.6792 31.9032 32.9754 31.0722C33.2717 30.2412 33.2717 29.5294 33.1832 29.3809C33.0939 29.2324 32.8569 29.1439 32.5014 28.9654C32.1459 28.7869 30.3962 27.9267 30.0699 27.8082C29.7437 27.6897 29.5067 27.6304 29.2689 27.9867C29.0319 28.3422 28.3502 29.1439 28.1424 29.3809C27.9347 29.6187 27.7269 29.6487 27.3714 29.4702C27.0159 29.2917 25.8699 28.9167 24.5102 27.7047C23.4527 26.7619 22.7387 25.5972 22.5309 25.2409C22.3232 24.8854 22.5084 24.6927 22.6869 24.5149C22.8467 24.3552 23.0424 24.0994 23.2209 23.8917C23.3987 23.6839 23.4579 23.5354 23.5764 23.2984C23.6949 23.0607 23.6357 22.8529 23.5464 22.6752C23.4587 22.4967 22.7672 20.7372 22.4507 20.0337Z" fill="white"/>
</svg>
